<?xml version="1.0" encoding="UTF-8" standalone="no"?>
<!-- Created with Inkscape (http://www.inkscape.org/) -->

<svg
   xmlns:dc="http://purl.org/dc/elements/1.1/"
   xmlns:cc="http://creativecommons.org/ns#"
   xmlns:rdf="http://www.w3.org/1999/02/22-rdf-syntax-ns#"
   xmlns:svg="http://www.w3.org/2000/svg"
   xmlns="http://www.w3.org/2000/svg"
   xmlns:sodipodi="http://sodipodi.sourceforge.net/DTD/sodipodi-0.dtd"
   xmlns:inkscape="http://www.inkscape.org/namespaces/inkscape"
   width="90"
   height="90"
   id="svg4874"
   version="1.1"
   inkscape:version="0.91+devel r"
   viewBox="0 0 90 90.000001"
   sodipodi:docname="online-account-yahoo.svg">
  <defs
     id="defs4876" />
  <sodipodi:namedview
     id="base"
     pagecolor="#ffffff"
     bordercolor="#666666"
     borderopacity="1.0"
     inkscape:pageopacity="0.0"
     inkscape:pageshadow="2"
     inkscape:zoom="4.0745363"
     inkscape:cx="50.778783"
     inkscape:cy="52.9999"
     inkscape:document-units="px"
     inkscape:current-layer="g1311"
     showgrid="true"
     showborder="true"
     fit-margin-top="0"
     fit-margin-left="0"
     fit-margin-right="0"
     fit-margin-bottom="0"
     inkscape:snap-bbox="true"
     inkscape:bbox-paths="true"
     inkscape:bbox-nodes="true"
     inkscape:snap-bbox-edge-midpoints="true"
     inkscape:snap-bbox-midpoints="true"
     inkscape:object-paths="true"
     inkscape:snap-intersection-paths="true"
     inkscape:object-nodes="true"
     inkscape:snap-smooth-nodes="true"
     inkscape:snap-midpoints="true"
     inkscape:snap-object-midpoints="true"
     inkscape:snap-center="true"
     showguides="true"
     inkscape:guide-bbox="true">
    <inkscape:grid
       type="xygrid"
       id="grid5451"
       empspacing="6" />
    <sodipodi:guide
       orientation="1,0"
       position="6,77"
       id="guide4063" />
    <sodipodi:guide
       orientation="1,0"
       position="3,78"
       id="guide4065" />
    <sodipodi:guide
       orientation="0,1"
       position="55,84"
       id="guide4067" />
    <sodipodi:guide
       orientation="0,1"
       position="53,87"
       id="guide4069" />
    <sodipodi:guide
       orientation="0,1"
       position="20,3"
       id="guide4071" />
    <sodipodi:guide
       orientation="0,1"
       position="20,6"
       id="guide4073" />
    <sodipodi:guide
       orientation="1,0"
       position="87,7"
       id="guide4075" />
    <sodipodi:guide
       orientation="1,0"
       position="84,7"
       id="guide4077" />
    <sodipodi:guide
       orientation="0,1"
       position="58,81"
       id="guide4074" />
    <sodipodi:guide
       orientation="1,0"
       position="9,74"
       id="guide4076" />
    <sodipodi:guide
       orientation="0,1"
       position="21,9"
       id="guide4078" />
    <sodipodi:guide
       orientation="1,0"
       position="81,4"
       id="guide4080" />
  </sodipodi:namedview>
  <metadata
     id="metadata4879">
    <rdf:RDF>
      <cc:Work
         rdf:about="">
        <dc:format>image/svg+xml</dc:format>
        <dc:type
           rdf:resource="http://purl.org/dc/dcmitype/StillImage" />
        <dc:title></dc:title>
      </cc:Work>
    </rdf:RDF>
  </metadata>
  <g
     inkscape:label="Layer 1"
     inkscape:groupmode="layer"
     id="layer1"
     transform="translate(67.857146,-84.50504)">
    <g
       transform="matrix(0,-1,-1,0,373.50506,516.50504)"
       id="g4845"
       style="display:inline">
      <g
         transform="matrix(0,-1,-1,0,567.36222,615.36221)"
         id="g1311"
         inkscape:export-filename="envelope02.png"
         inkscape:export-xdpi="90"
         inkscape:export-ydpi="90">
        <g
           id="g1313"
           transform="matrix(1.875,0,0,1.875,-366,-1657.8169)">
          <rect
             transform="translate(0,804.3622)"
             y="152"
             x="288"
             height="48"
             width="48"
             id="rect1315"
             style="opacity:0.21171169;fill:none;stroke:none" />
        </g>
        <path
           id="path4404"
           d="m 264.00001,173.15221 c -1.04803,-0.0302 -10.57595,-0.94002 -11.81391,-1.17995 l 0.14583,25.08986 5.39196,0.44005 m 0.24796,4.04005 -3.10499,-0.14983 -3.46381,-0.42015 0.028,5.94024 2.73293,0.22996 2.94513,0.21979 M 246.495,166.71231 c -2.20286,0.58997 -22.35195,16.21988 -23.67993,20.05009 -0.29297,1.32989 0.0288,14.1698 0.32186,16.08988 1.32822,0.30007 10.91297,0.04 12.67105,0.33987 l -0.20985,3.97019 c -1.72301,-0.14 -13.90333,-0.11016 -20.85204,-0.11016 -3.53202,0 -14.88504,0.39008 -18.37207,0.29015 l 0.66008,-3.78 c 1.91391,-0.14 9.82989,0.36 11.56595,-1.48998 0.86305,-0.92013 0.5921,-13.13005 0.29889,-15.1901 -0.73304,-2.20999 -18.38985,-24.33008 -23.00496,-27.95991 l -11.89397,0 0,-5.56013 40.10897,0 0,0.38014 0.136,0.0188 -0.136,0.94003 0,4.22005 -12.09385,0 c 5.39101,7.87997 13.11985,17.39984 16.41599,21.96995 l 16.15382,-14.62998 -9.60088,0 -1.35308,-5.56009 35.17509,0 -0.26005,0.40001 0.12417,0 -2.51315,3.64998 -0.08,0.008 -1.01296,1.49991 -6.48901,0 c -0.84104,0.18 -1.57998,0.35005 -2.07995,0.45 z"
           inkscape:connector-curvature="0"
           style="fill:#808080;fill-opacity:1;stroke-width:0.28421086;stroke-linejoin:round" />
      </g>
    </g>
  </g>
</svg>
