<?xml version="1.0" encoding="UTF-8" standalone="no"?>
<!-- Created with Inkscape (http://www.inkscape.org/) -->

<svg
   xmlns:dc="http://purl.org/dc/elements/1.1/"
   xmlns:cc="http://creativecommons.org/ns#"
   xmlns:rdf="http://www.w3.org/1999/02/22-rdf-syntax-ns#"
   xmlns:svg="http://www.w3.org/2000/svg"
   xmlns="http://www.w3.org/2000/svg"
   xmlns:sodipodi="http://sodipodi.sourceforge.net/DTD/sodipodi-0.dtd"
   xmlns:inkscape="http://www.inkscape.org/namespaces/inkscape"
   width="90"
   height="90"
   id="svg4874"
   version="1.1"
   inkscape:version="0.91+devel r"
   viewBox="0 0 90 90.000001"
   sodipodi:docname="account-outlook.svg">
  <defs
     id="defs4876" />
  <sodipodi:namedview
     id="base"
     pagecolor="#ffffff"
     bordercolor="#666666"
     borderopacity="1.0"
     inkscape:pageopacity="0.0"
     inkscape:pageshadow="2"
     inkscape:zoom="6.366463"
     inkscape:cx="59.766309"
     inkscape:cy="67.250845"
     inkscape:document-units="px"
     inkscape:current-layer="g1311"
     showgrid="true"
     showborder="true"
     fit-margin-top="0"
     fit-margin-left="0"
     fit-margin-right="0"
     fit-margin-bottom="0"
     inkscape:snap-bbox="true"
     inkscape:bbox-paths="true"
     inkscape:bbox-nodes="true"
     inkscape:snap-bbox-edge-midpoints="true"
     inkscape:snap-bbox-midpoints="true"
     inkscape:object-paths="true"
     inkscape:snap-intersection-paths="true"
     inkscape:object-nodes="true"
     inkscape:snap-smooth-nodes="true"
     inkscape:snap-midpoints="true"
     inkscape:snap-object-midpoints="true"
     inkscape:snap-center="true"
     showguides="true"
     inkscape:guide-bbox="true">
    <inkscape:grid
       type="xygrid"
       id="grid5451"
       empspacing="6" />
    <sodipodi:guide
       orientation="1,0"
       position="6,77"
       id="guide4063" />
    <sodipodi:guide
       orientation="1,0"
       position="3,78"
       id="guide4065" />
    <sodipodi:guide
       orientation="0,1"
       position="55,84"
       id="guide4067" />
    <sodipodi:guide
       orientation="0,1"
       position="53,87"
       id="guide4069" />
    <sodipodi:guide
       orientation="0,1"
       position="20,3"
       id="guide4071" />
    <sodipodi:guide
       orientation="0,1"
       position="20,6"
       id="guide4073" />
    <sodipodi:guide
       orientation="1,0"
       position="87,7"
       id="guide4075" />
    <sodipodi:guide
       orientation="1,0"
       position="84,7"
       id="guide4077" />
    <sodipodi:guide
       orientation="0,1"
       position="58,81"
       id="guide4074" />
    <sodipodi:guide
       orientation="1,0"
       position="9,74"
       id="guide4076" />
    <sodipodi:guide
       orientation="0,1"
       position="21,9"
       id="guide4078" />
    <sodipodi:guide
       orientation="1,0"
       position="81,4"
       id="guide4080" />
  </sodipodi:namedview>
  <metadata
     id="metadata4879">
    <rdf:RDF>
      <cc:Work
         rdf:about="">
        <dc:format>image/svg+xml</dc:format>
        <dc:type
           rdf:resource="http://purl.org/dc/dcmitype/StillImage" />
        <dc:title></dc:title>
      </cc:Work>
    </rdf:RDF>
  </metadata>
  <g
     inkscape:label="Layer 1"
     inkscape:groupmode="layer"
     id="layer1"
     transform="translate(67.857146,-84.50504)">
    <g
       transform="matrix(0,-1,-1,0,373.50506,516.50504)"
       id="g4845"
       style="display:inline">
      <g
         transform="matrix(0,-1,-1,0,567.36222,615.36221)"
         id="g1311"
         inkscape:export-filename="envelope02.png"
         inkscape:export-xdpi="90"
         inkscape:export-ydpi="90">
        <g
           id="g1313"
           transform="matrix(1.875,0,0,1.875,-366,-1657.8169)">
          <rect
             transform="translate(0,804.3622)"
             y="152"
             x="288"
             height="48"
             width="48"
             id="rect1315"
             style="opacity:0.21171169;fill:none;stroke:none" />
        </g>
        <g
           id="g4395"
           transform="matrix(0.75598166,0,0,0.75598166,180.00147,140.93277)"
           style="stroke-width:0.65940511;fill:#808080">
          <path
             style="fill:#808080;fill-opacity:1;stroke-width:0.32871225"
             d="m 85.556641,703 -30.273438,5.85938 0,39.79296 30.273438,6.34766 0,-52 z m 1.914062,11.02539 0,10.17188 3.554688,2.23828 c 0.09375,0.0273 0.296878,0.0293 0.390625,0 l 15.298824,-10.31446 c 0,-1.22065 -1.1387,-2.0957 -1.78125,-2.0957 l -17.462887,0 z m -16.710937,5.88086 c 1.997971,0 3.61528,0.81647 4.847656,2.45313 1.234329,1.63665 1.851562,3.79306 1.851562,6.4707 0.002,2.75185 -0.63872,4.96881 -1.917968,6.65234 -1.279249,1.68353 -2.947343,2.52735 -5.00586,2.52735 -2.005784,0 -3.638719,-0.81647 -4.902344,-2.44727 -1.261671,-1.63275 -1.894531,-3.75596 -1.894531,-6.37695 0,-2.76748 0.640673,-5.00593 1.923828,-6.71485 1.283155,-1.70892 2.982502,-2.56445 5.097657,-2.56445 z m 35.957034,0.32617 c 0,0 -15.542951,10.32225 -14.994144,9.98633 0,0 -0.550798,0.33592 -1.007812,0 l -3.244141,-2.22656 -0.002,0 0,13.82226 16.480467,0 c 1.46479,0 2.76758,-0.85359 2.76758,-2.88867 l 0,-18.69336 z m -36.042972,3.07031 c -1.105427,0 -1.986352,0.51957 -2.636719,1.55665 -0.650366,1.03707 -0.976562,2.41022 -0.976562,4.11914 0,1.73431 0.326196,3.10355 0.976562,4.11132 0.650367,1.00973 1.503946,1.51172 2.558594,1.51172 1.08785,0 1.951196,-0.49027 2.587891,-1.4707 0.636695,-0.98043 0.957031,-2.33991 0.957031,-4.08008 0,-1.81438 -0.308617,-3.2266 -0.927734,-4.23633 -0.619118,-1.00777 -1.464884,-1.51172 -2.539063,-1.51172 z"
             transform="matrix(2.0060254,0,0,2.0060254,-110.90144,-1410.2359)"
             id="path3"
             inkscape:connector-curvature="0" />
          <g
             transform="matrix(3.9178712,0,0,3.9178712,-13.481403,-41.384473)"
             id="g23"
             style="stroke-width:0.65940511;fill:#808080" />
        </g>
      </g>
    </g>
  </g>
</svg>
