<?xml version="1.0" encoding="UTF-8" standalone="no"?>
<!-- Created with Inkscape (http://www.inkscape.org/) -->

<svg
   xmlns:dc="http://purl.org/dc/elements/1.1/"
   xmlns:cc="http://creativecommons.org/ns#"
   xmlns:rdf="http://www.w3.org/1999/02/22-rdf-syntax-ns#"
   xmlns:svg="http://www.w3.org/2000/svg"
   xmlns="http://www.w3.org/2000/svg"
   xmlns:sodipodi="http://sodipodi.sourceforge.net/DTD/sodipodi-0.dtd"
   xmlns:inkscape="http://www.inkscape.org/namespaces/inkscape"
   width="90"
   height="90"
   id="svg4874"
   version="1.1"
   inkscape:version="0.48.5 r10040"
   viewBox="0 0 90 90.000001"
   sodipodi:docname="outlook.svg">
  <defs
     id="defs4876" />
  <sodipodi:namedview
     id="base"
     pagecolor="#ffffff"
     bordercolor="#666666"
     borderopacity="1.0"
     inkscape:pageopacity="0.0"
     inkscape:pageshadow="2"
     inkscape:zoom="5.0931703"
     inkscape:cx="36.247178"
     inkscape:cy="77.251106"
     inkscape:document-units="px"
     inkscape:current-layer="g1311"
     showgrid="true"
     showborder="true"
     fit-margin-top="0"
     fit-margin-left="0"
     fit-margin-right="0"
     fit-margin-bottom="0"
     inkscape:snap-bbox="true"
     inkscape:bbox-paths="true"
     inkscape:bbox-nodes="true"
     inkscape:snap-bbox-edge-midpoints="true"
     inkscape:snap-bbox-midpoints="true"
     inkscape:object-paths="true"
     inkscape:snap-intersection-paths="true"
     inkscape:object-nodes="true"
     inkscape:snap-smooth-nodes="true"
     inkscape:snap-midpoints="true"
     inkscape:snap-object-midpoints="true"
     inkscape:snap-center="true"
     showguides="true"
     inkscape:guide-bbox="true"
     inkscape:window-width="1920"
     inkscape:window-height="1056"
     inkscape:window-x="1366"
     inkscape:window-y="24"
     inkscape:window-maximized="1">
    <inkscape:grid
       type="xygrid"
       id="grid5451"
       empspacing="6" />
    <sodipodi:guide
       orientation="1,0"
       position="6,77"
       id="guide4063" />
    <sodipodi:guide
       orientation="1,0"
       position="3,78"
       id="guide4065" />
    <sodipodi:guide
       orientation="0,1"
       position="55,84"
       id="guide4067" />
    <sodipodi:guide
       orientation="0,1"
       position="53,87"
       id="guide4069" />
    <sodipodi:guide
       orientation="0,1"
       position="20,3"
       id="guide4071" />
    <sodipodi:guide
       orientation="0,1"
       position="20,6"
       id="guide4073" />
    <sodipodi:guide
       orientation="1,0"
       position="87,7"
       id="guide4075" />
    <sodipodi:guide
       orientation="1,0"
       position="84,7"
       id="guide4077" />
    <sodipodi:guide
       orientation="0,1"
       position="58,81"
       id="guide4074" />
    <sodipodi:guide
       orientation="1,0"
       position="9,74"
       id="guide4076" />
    <sodipodi:guide
       orientation="0,1"
       position="21,9"
       id="guide4078" />
    <sodipodi:guide
       orientation="1,0"
       position="81,4"
       id="guide4080" />
  </sodipodi:namedview>
  <metadata
     id="metadata4879">
    <rdf:RDF>
      <cc:Work
         rdf:about="">
        <dc:format>image/svg+xml</dc:format>
        <dc:type
           rdf:resource="http://purl.org/dc/dcmitype/StillImage" />
        <dc:title></dc:title>
      </cc:Work>
    </rdf:RDF>
  </metadata>
  <g
     inkscape:label="Layer 1"
     inkscape:groupmode="layer"
     id="layer1"
     transform="translate(67.857146,-84.50504)">
    <g
       transform="matrix(0,-1,-1,0,373.50506,516.50504)"
       id="g4845"
       style="display:inline">
      <g
         transform="matrix(0,-1,-1,0,567.36222,615.36221)"
         id="g1311"
         inkscape:export-filename="envelope02.png"
         inkscape:export-xdpi="90"
         inkscape:export-ydpi="90">
        <g
           inkscape:label="Layer 1"
           id="layer1-5"
           transform="matrix(3.1922062,0,0,3.1301095,168.78318,130.60659)">
          <path
             sodipodi:nodetypes="cccsccccccccccccccscccsssss"
             inkscape:connector-curvature="0"
             style="fill:#808080;fill-opacity:0;stroke:none;display:inline;enable-background:new"
             d="m 26.382619,-0.71702549 c 2.68339,4.04344999 6.98507,11.74387049 8.44787,14.27215049 l -0.19795,10.54139 c 0,0 0.94278,-0.15762 1.5735,-0.15762 0.699,0 1.57013,0.15762 1.57013,0.15762 l -0.19794,-10.54139 c 2.72954,-4.7888905 7.234,-12.60062049 8.47135,-14.27215049 -1.17934,0.26753 -2.24193,0.27642 -3.29795,0 -0.93062,1.73337999 -4.36441,7.34222999 -6.54894,10.93394049 -2.2156,-3.6695405 -4.83685,-7.9056505 -6.5456,-10.93394049 -1.35487,0.28896 -1.92237,0.30735 -3.27447,0 z m 24.28652,0.25834 c -0.78595,0 -1.56344,0.46211 -1.56344,1.64057999 -0.46622,5.91291 -0.95301,11.8403605 -1.7513,17.4828805 l 0.003,0 c 0.47973,-0.0827 0.85303,0.0391 1.21451,0.18453 l 0.003,0 c 0.90647,-5.72972 3.05894,-14.3089605 3.60998,-16.7380605 0.079,-0.34144 0.19795,-0.74645 0.19795,-1.03334 0,-0.86688999 -0.54965,-1.37221999 -1.3722,-1.50974999 0,0 -0.20445,-0.0268 -0.3422,-0.0268 z M 47.253749,21.036415 c -1.02984,0 -1.54327,0.78574 -1.54327,1.63054 0,0.996 0.79455,1.5064 1.77816,1.5064 0.71137,0 1.4896,-0.43049 1.4896,-1.6037 0,-0.94164 -0.73873,-1.53324 -1.72449,-1.53324 z"
             id="path3844" />
          <path
             id="path3853"
             d="m 3.5379646,5.7363054 0,20.3920436 13.6975574,2.549004 1.245461,0 0,-25.4900506 -1.245461,0 z m 16.1884774,3.8235201 0,4.4607555 c 0.818267,0.790518 1.778517,1.760754 2.614221,2.534168 1.910536,-1.834689 3.816089,-3.669375 5.734097,-5.498134 0.317593,-0.243062 0.313856,-1.1085172 0.368656,-1.4967895 z m -8.69455,1.3560115 c 1.367512,-0.07302 2.731288,0.762296 3.294235,2.074774 0.944059,2.222962 0.812041,5.262506 -1.064867,6.94307 -1.728694,1.514586 -4.6281194,0.655029 -5.4152504,-1.496804 -1.036223,-2.48083 -0.528074,-6.304341 2.2517934,-7.320978 0.306381,-0.118428 0.617744,-0.183198 0.934089,-0.200062 z m 17.411524,0.955884 c -1.748626,1.68352 -3.449923,3.257378 -5.191076,4.949809 -0.32133,0.272669 -0.642658,0.689114 -1.114687,0.60019 -0.812039,-0.632109 -1.675144,-1.398472 -2.411211,-2.126644 l 0,7.009761 8.716974,0 c 0,0 0,-6.959371 0,-10.43313 z m -17.462588,0.881771 c -0.204253,0.0051 -0.415981,0.05406 -0.60778,0.148197 -1.0860414,0.54241 -1.3326414,1.939914 -1.3176964,3.060285 0,1.081838 0.352466,2.46305 1.4908124,2.830584 0.91292,0.346781 1.851995,-0.37939 2.121015,-1.259684 0.379863,-1.238929 0.384845,-2.672012 -0.195538,-3.845742 -0.270263,-0.58464 -0.878047,-0.948362 -1.490813,-0.93364 z"
             style="fill:#808080;fill-opacity:1;stroke:#808080;stroke-width:1.25999463;stroke-opacity:0;display:inline;enable-background:new"
             inkscape:connector-curvature="0"
             sodipodi:nodetypes="cccccccccccccccccccccccccccccccccc" />
        </g>
      </g>
    </g>
  </g>
</svg>
