<?xml version="1.0" encoding="UTF-8" standalone="no"?>
<!-- Created with Inkscape (http://www.inkscape.org/) -->

<svg
   xmlns:dc="http://purl.org/dc/elements/1.1/"
   xmlns:cc="http://creativecommons.org/ns#"
   xmlns:rdf="http://www.w3.org/1999/02/22-rdf-syntax-ns#"
   xmlns:svg="http://www.w3.org/2000/svg"
   xmlns="http://www.w3.org/2000/svg"
   xmlns:sodipodi="http://sodipodi.sourceforge.net/DTD/sodipodi-0.dtd"
   xmlns:inkscape="http://www.inkscape.org/namespaces/inkscape"
   width="90"
   height="90"
   id="svg4874"
   version="1.1"
   inkscape:version="0.48.5 r10040"
   viewBox="0 0 90 90.000001"
   sodipodi:docname="gmail.svg">
  <defs
     id="defs4876" />
  <sodipodi:namedview
     id="base"
     pagecolor="#ffffff"
     bordercolor="#666666"
     borderopacity="1.0"
     inkscape:pageopacity="0.0"
     inkscape:pageshadow="2"
     inkscape:zoom="5.0931703"
     inkscape:cx="25.722157"
     inkscape:cy="63.514884"
     inkscape:document-units="px"
     inkscape:current-layer="g1311"
     showgrid="true"
     showborder="true"
     fit-margin-top="0"
     fit-margin-left="0"
     fit-margin-right="0"
     fit-margin-bottom="0"
     inkscape:snap-bbox="true"
     inkscape:bbox-paths="true"
     inkscape:bbox-nodes="true"
     inkscape:snap-bbox-edge-midpoints="true"
     inkscape:snap-bbox-midpoints="true"
     inkscape:object-paths="true"
     inkscape:snap-intersection-paths="true"
     inkscape:object-nodes="true"
     inkscape:snap-smooth-nodes="true"
     inkscape:snap-midpoints="true"
     inkscape:snap-object-midpoints="true"
     inkscape:snap-center="true"
     showguides="true"
     inkscape:guide-bbox="true"
     inkscape:window-width="1920"
     inkscape:window-height="1056"
     inkscape:window-x="1366"
     inkscape:window-y="24"
     inkscape:window-maximized="1">
    <inkscape:grid
       type="xygrid"
       id="grid5451"
       empspacing="6" />
    <sodipodi:guide
       orientation="1,0"
       position="6,77"
       id="guide4063" />
    <sodipodi:guide
       orientation="1,0"
       position="3,78"
       id="guide4065" />
    <sodipodi:guide
       orientation="0,1"
       position="55,84"
       id="guide4067" />
    <sodipodi:guide
       orientation="0,1"
       position="53,87"
       id="guide4069" />
    <sodipodi:guide
       orientation="0,1"
       position="20,3"
       id="guide4071" />
    <sodipodi:guide
       orientation="0,1"
       position="20,6"
       id="guide4073" />
    <sodipodi:guide
       orientation="1,0"
       position="87,7"
       id="guide4075" />
    <sodipodi:guide
       orientation="1,0"
       position="84,7"
       id="guide4077" />
    <sodipodi:guide
       orientation="0,1"
       position="58,81"
       id="guide4074" />
    <sodipodi:guide
       orientation="1,0"
       position="9,74"
       id="guide4076" />
    <sodipodi:guide
       orientation="0,1"
       position="21,9"
       id="guide4078" />
    <sodipodi:guide
       orientation="1,0"
       position="81,4"
       id="guide4080" />
  </sodipodi:namedview>
  <metadata
     id="metadata4879">
    <rdf:RDF>
      <cc:Work
         rdf:about="">
        <dc:format>image/svg+xml</dc:format>
        <dc:type
           rdf:resource="http://purl.org/dc/dcmitype/StillImage" />
        <dc:title></dc:title>
      </cc:Work>
    </rdf:RDF>
  </metadata>
  <g
     inkscape:label="Layer 1"
     inkscape:groupmode="layer"
     id="layer1"
     transform="translate(67.857146,-84.50504)">
    <g
       transform="matrix(0,-1,-1,0,373.50506,516.50504)"
       id="g4845"
       style="display:inline">
      <g
         transform="matrix(0,-1,-1,0,567.36222,615.36221)"
         id="g1311"
         inkscape:export-filename="envelope02.png"
         inkscape:export-xdpi="90"
         inkscape:export-ydpi="90">
        <g
           id="g1313"
           transform="matrix(1.875,0,0,1.875,-366,-1657.8169)">
          <rect
             transform="translate(0,804.3622)"
             y="152"
             x="288"
             height="48"
             width="48"
             id="rect1315"
             style="opacity:0.21171169;fill:none;stroke:none" />
        </g>
        <path
           style="fill:#808080;fill-opacity:1;display:inline;enable-background:new"
           d="m 219.11171,138.37855 c -23.1343,0 -41.88831,18.80036 -41.88831,41.99183 0,23.19148 18.75401,41.99184 41.88831,41.99184 23.13427,0 41.88829,-18.80036 41.88829,-41.99184 0,-23.19147 -18.75402,-41.99183 -41.88829,-41.99183 z m 13.01867,12.23962 c 1.05439,-0.0742 2.20359,0.1233 3.18922,0.69218 2.62305,1.51721 3.49161,4.91801 1.97545,7.53942 -1.51081,2.63767 -4.85024,3.5187 -7.4733,2.00411 -2.62837,-1.51996 -3.5338,-4.86214 -2.02298,-7.49166 0.94761,-1.64519 2.57439,-2.61954 4.33161,-2.74385 z m -13.58987,5.82164 c 2.20561,0 4.37167,0.3478 6.40225,0.90666 0.36093,2.21648 1.67868,4.23303 3.76039,5.43983 2.08178,1.21215 4.45522,1.33435 6.54504,0.54868 4.05849,4.001 6.70463,9.45015 7.09244,15.50837 l -7.78261,0.095 c -0.72174,-8.22064 -7.63666,-14.6494 -16.01751,-14.6494 -2.40764,0 -4.65956,0.56619 -6.71166,1.52696 l -3.80807,-6.89519 c 3.18052,-1.58204 6.72789,-2.48137 10.51973,-2.48137 z m -13.20906,4.03217 4.02217,6.72824 c -4.12309,2.90489 -6.80686,7.70366 -6.80686,13.14628 0,5.43726 2.68377,10.24139 6.80686,13.14633 l -4.02217,6.77597 c -4.80447,-3.21543 -8.34289,-8.12742 -9.82952,-13.88596 1.74241,-1.42543 2.78464,-3.62549 2.78464,-6.03634 0,-2.42702 -1.0449,-4.54735 -2.78464,-5.96472 1.48663,-5.76129 5.02505,-10.69439 9.82952,-13.9098 z m -14.73234,14.38697 c 3.0378,0 5.49785,2.44498 5.49785,5.48755 0,3.0318 -2.46005,5.4876 -5.49785,5.4876 -3.0351,0 -5.47406,-2.4558 -5.47406,-5.4876 0,-3.04257 2.43896,-5.48755 5.47406,-5.48755 z m 43.95891,6.94295 7.78261,0.11909 c -0.38813,6.06363 -3.03395,11.502 -7.09244,15.50838 -2.08982,-0.79643 -4.45787,-0.68168 -6.54504,0.52489 -2.08444,1.21217 -3.39952,3.22609 -3.76039,5.43985 -2.03058,0.56405 -4.19664,0.85893 -6.40225,0.85893 -3.79184,0 -7.33921,-0.87006 -10.51973,-2.45751 l 3.80807,-6.84756 c 2.0521,0.96114 4.3013,1.5032 6.71166,1.5032 8.38085,0 15.29577,-6.44228 16.01751,-14.64949 z m -2.40382,17.34549 c 0.2645,-0.0211 0.52152,-0.0211 0.78541,0 1.75748,0.12334 3.40781,1.09864 4.35544,2.7438 1.51616,2.62954 0.65068,5.97447 -1.97545,7.49179 -2.62567,1.5145 -6.00459,0.63337 -7.52083,-2.00423 -1.51082,-2.62412 -0.60528,-5.9587 2.02298,-7.46789 0.73776,-0.42899 1.53825,-0.69565 2.33245,-0.76347 z"
           id="path3349"
           inkscape:connector-curvature="0"
           sodipodi:nodetypes="sssssccccccscccccsccsccscccsccssssscccccsccscssccccs" />
      </g>
    </g>
  </g>
</svg>
