<?xml version="1.0" encoding="UTF-8" standalone="no"?>
<!-- Created with Inkscape (http://www.inkscape.org/) -->

<svg
   xmlns:dc="http://purl.org/dc/elements/1.1/"
   xmlns:cc="http://creativecommons.org/ns#"
   xmlns:rdf="http://www.w3.org/1999/02/22-rdf-syntax-ns#"
   xmlns:svg="http://www.w3.org/2000/svg"
   xmlns="http://www.w3.org/2000/svg"
   xmlns:sodipodi="http://sodipodi.sourceforge.net/DTD/sodipodi-0.dtd"
   xmlns:inkscape="http://www.inkscape.org/namespaces/inkscape"
   width="90"
   height="90"
   id="svg4874"
   version="1.1"
   inkscape:version="0.48.5 r10040"
   viewBox="0 0 90 90.000001"
   sodipodi:docname="outlook.svg">
  <defs
     id="defs4876" />
  <sodipodi:namedview
     id="base"
     pagecolor="#ffffff"
     bordercolor="#666666"
     borderopacity="1.0"
     inkscape:pageopacity="0.0"
     inkscape:pageshadow="2"
     inkscape:zoom="5.0931703"
     inkscape:cx="36.247178"
     inkscape:cy="77.251106"
     inkscape:document-units="px"
     inkscape:current-layer="g1311"
     showgrid="true"
     showborder="true"
     fit-margin-top="0"
     fit-margin-left="0"
     fit-margin-right="0"
     fit-margin-bottom="0"
     inkscape:snap-bbox="true"
     inkscape:bbox-paths="true"
     inkscape:bbox-nodes="true"
     inkscape:snap-bbox-edge-midpoints="true"
     inkscape:snap-bbox-midpoints="true"
     inkscape:object-paths="true"
     inkscape:snap-intersection-paths="true"
     inkscape:object-nodes="true"
     inkscape:snap-smooth-nodes="true"
     inkscape:snap-midpoints="true"
     inkscape:snap-object-midpoints="true"
     inkscape:snap-center="true"
     showguides="true"
     inkscape:guide-bbox="true"
     inkscape:window-width="1920"
     inkscape:window-height="1056"
     inkscape:window-x="1366"
     inkscape:window-y="24"
     inkscape:window-maximized="1">
    <inkscape:grid
       type="xygrid"
       id="grid5451"
       empspacing="6" />
    <sodipodi:guide
       orientation="1,0"
       position="6,77"
       id="guide4063" />
    <sodipodi:guide
       orientation="1,0"
       position="3,78"
       id="guide4065" />
    <sodipodi:guide
       orientation="0,1"
       position="55,84"
       id="guide4067" />
    <sodipodi:guide
       orientation="0,1"
       position="53,87"
       id="guide4069" />
    <sodipodi:guide
       orientation="0,1"
       position="20,3"
       id="guide4071" />
    <sodipodi:guide
       orientation="0,1"
       position="20,6"
       id="guide4073" />
    <sodipodi:guide
       orientation="1,0"
       position="87,7"
       id="guide4075" />
    <sodipodi:guide
       orientation="1,0"
       position="84,7"
       id="guide4077" />
    <sodipodi:guide
       orientation="0,1"
       position="58,81"
       id="guide4074" />
    <sodipodi:guide
       orientation="1,0"
       position="9,74"
       id="guide4076" />
    <sodipodi:guide
       orientation="0,1"
       position="21,9"
       id="guide4078" />
    <sodipodi:guide
       orientation="1,0"
       position="81,4"
       id="guide4080" />
  </sodipodi:namedview>
  <metadata
     id="metadata4879">
    <rdf:RDF>
      <cc:Work
         rdf:about="">
        <dc:format>image/svg+xml</dc:format>
        <dc:type
           rdf:resource="http://purl.org/dc/dcmitype/StillImage" />
        <dc:title></dc:title>
      </cc:Work>
    </rdf:RDF>
  </metadata>
  <g
     inkscape:label="Layer 1"
     inkscape:groupmode="layer"
     id="layer1"
     transform="translate(67.857146,-84.50504)">
    <g
       transform="matrix(0,-1,-1,0,373.50506,516.50504)"
       id="g4845"
       style="display:inline">
      <g
         transform="matrix(0,-1,-1,0,567.36222,615.36221)"
         id="g1311"
         inkscape:export-filename="envelope02.png"
         inkscape:export-xdpi="90"
         inkscape:export-ydpi="90">
        <g
           inkscape:label="Layer 1"
           id="layer1-8"
           transform="matrix(3.2240989,0,0,3.7710767,167.11255,120.06618)">
          <path
             id="path3862"
             d="M 3.2530802,4.7158592 C 5.8760742,8.3988855 10.080933,15.412911 11.510809,17.715825 l -0.193495,9.601753 c 0,0 0.921561,-0.14357 1.538085,-0.14357 0.683267,0 1.53479,0.14357 1.53479,0.14357 l -0.193485,-9.601753 c 2.668105,-4.362019 7.071182,-11.4774328 8.280681,-12.9999658 -1.152795,0.243683 -2.19147,0.251781 -3.223721,0 -0.909675,1.57887 -4.266178,6.6877638 -6.40154,9.9593158 C 10.686392,11.33273 8.1241402,7.4742143 6.4538502,4.7158592 c -1.324375,0.263203 -1.879103,0.279954 -3.20077,0 z M 26.99297,4.9511722 c -0.76826,0 -1.52825,0.420918 -1.52825,1.494342 -0.455728,5.3858478 -0.931561,10.7849398 -1.711883,15.9244968 l 0.0029,0 c 0.468931,-0.07533 0.83383,0.03562 1.187173,0.168081 l 0.0029,0 c 0.886067,-5.218984 2.990091,-13.0334912 3.528728,-15.2460688 0.07722,-0.311004 0.193494,-0.679912 0.193494,-0.94123 0,-0.789617 -0.537278,-1.249903 -1.341315,-1.375174 0,0 -0.199848,-0.02441 -0.334498,-0.02441 z M 23.654452,24.530248 c -1.00666,0 -1.508535,0.715701 -1.508535,1.485198 0,0.90722 0.776667,1.372123 1.738138,1.372123 0.695359,0 1.456074,-0.392118 1.456074,-1.46075 0,-0.857704 -0.722104,-1.396571 -1.685677,-1.396571 z"
             style="fill:#808080;fill-opacity:1;stroke:#808080;stroke-width:0.94358939;stroke-opacity:0;display:inline;enable-background:new"
             inkscape:connector-curvature="0"
             sodipodi:nodetypes="cccsccccccccccccccscccsssss" />
          <path
             sodipodi:nodetypes="cccsccccccccccccccscccsssss"
             inkscape:connector-curvature="0"
             style="fill:#808080;fill-opacity:0;stroke:none;display:inline;enable-background:new"
             d="m 26.382619,-0.71702549 c 2.68339,4.04344999 6.98507,11.74387049 8.44787,14.27215049 l -0.19795,10.54139 c 0,0 0.94278,-0.15762 1.5735,-0.15762 0.699,0 1.57013,0.15762 1.57013,0.15762 l -0.19794,-10.54139 c 2.72954,-4.7888905 7.234,-12.60062049 8.47135,-14.27215049 -1.17934,0.26753 -2.24193,0.27642 -3.29795,0 -0.93062,1.73337999 -4.36441,7.34222999 -6.54894,10.93394049 -2.2156,-3.6695405 -4.83685,-7.9056505 -6.5456,-10.93394049 -1.35487,0.28896 -1.92237,0.30735 -3.27447,0 z m 24.28652,0.25834 c -0.78595,0 -1.56344,0.46211 -1.56344,1.64057999 -0.46622,5.91291 -0.95301,11.8403605 -1.7513,17.4828805 l 0.003,0 c 0.47973,-0.0827 0.85303,0.0391 1.21451,0.18453 l 0.003,0 c 0.90647,-5.72972 3.05894,-14.3089605 3.60998,-16.7380605 0.079,-0.34144 0.19795,-0.74645 0.19795,-1.03334 0,-0.86688999 -0.54965,-1.37221999 -1.3722,-1.50974999 0,0 -0.20445,-0.0268 -0.3422,-0.0268 z M 47.253749,21.036415 c -1.02984,0 -1.54327,0.78574 -1.54327,1.63054 0,0.996 0.79455,1.5064 1.77816,1.5064 0.71137,0 1.4896,-0.43049 1.4896,-1.6037 0,-0.94164 -0.73873,-1.53324 -1.72449,-1.53324 z"
             id="path3844-8" />
        </g>
      </g>
    </g>
  </g>
</svg>
