<?xml version="1.0" encoding="UTF-8" standalone="no"?>
<!-- Created with Inkscape (http://www.inkscape.org/) -->

<svg
   xmlns:dc="http://purl.org/dc/elements/1.1/"
   xmlns:cc="http://creativecommons.org/ns#"
   xmlns:rdf="http://www.w3.org/1999/02/22-rdf-syntax-ns#"
   xmlns:svg="http://www.w3.org/2000/svg"
   xmlns="http://www.w3.org/2000/svg"
   xmlns:sodipodi="http://sodipodi.sourceforge.net/DTD/sodipodi-0.dtd"
   xmlns:inkscape="http://www.inkscape.org/namespaces/inkscape"
   width="90"
   height="90"
   id="svg4874"
   version="1.1"
   inkscape:version="0.91+devel r"
   viewBox="0 0 90 90.000001"
   sodipodi:docname="mail-mark-important03a.svg">
  <defs
     id="defs4876" />
  <sodipodi:namedview
     id="base"
     pagecolor="#ffffff"
     bordercolor="#666666"
     borderopacity="1.0"
     inkscape:pageopacity="0.0"
     inkscape:pageshadow="2"
     inkscape:zoom="6.3664629"
     inkscape:cx="7.3196039"
     inkscape:cy="51.567096"
     inkscape:document-units="px"
     inkscape:current-layer="g1311"
     showgrid="true"
     showborder="true"
     fit-margin-top="0"
     fit-margin-left="0"
     fit-margin-right="0"
     fit-margin-bottom="0"
     inkscape:snap-bbox="true"
     inkscape:bbox-paths="true"
     inkscape:bbox-nodes="true"
     inkscape:snap-bbox-edge-midpoints="true"
     inkscape:snap-bbox-midpoints="true"
     inkscape:object-paths="true"
     inkscape:snap-intersection-paths="true"
     inkscape:object-nodes="true"
     inkscape:snap-smooth-nodes="true"
     inkscape:snap-midpoints="true"
     inkscape:snap-object-midpoints="true"
     inkscape:snap-center="true"
     showguides="true"
     inkscape:guide-bbox="true">
    <inkscape:grid
       type="xygrid"
       id="grid5451"
       empspacing="6" />
    <sodipodi:guide
       orientation="1,0"
       position="6,77"
       id="guide4063" />
    <sodipodi:guide
       orientation="1,0"
       position="3,78"
       id="guide4065" />
    <sodipodi:guide
       orientation="0,1"
       position="55,84"
       id="guide4067" />
    <sodipodi:guide
       orientation="0,1"
       position="53,87"
       id="guide4069" />
    <sodipodi:guide
       orientation="0,1"
       position="20,3"
       id="guide4071" />
    <sodipodi:guide
       orientation="0,1"
       position="20,6"
       id="guide4073" />
    <sodipodi:guide
       orientation="1,0"
       position="87,7"
       id="guide4075" />
    <sodipodi:guide
       orientation="1,0"
       position="84,7"
       id="guide4077" />
    <sodipodi:guide
       orientation="0,1"
       position="58,81"
       id="guide4074" />
    <sodipodi:guide
       orientation="1,0"
       position="9,74"
       id="guide4076" />
    <sodipodi:guide
       orientation="0,1"
       position="21,9"
       id="guide4078" />
    <sodipodi:guide
       orientation="1,0"
       position="81,4"
       id="guide4080" />
  </sodipodi:namedview>
  <metadata
     id="metadata4879">
    <rdf:RDF>
      <cc:Work
         rdf:about="">
        <dc:format>image/svg+xml</dc:format>
        <dc:type
           rdf:resource="http://purl.org/dc/dcmitype/StillImage" />
        <dc:title></dc:title>
      </cc:Work>
    </rdf:RDF>
  </metadata>
  <g
     inkscape:label="Layer 1"
     inkscape:groupmode="layer"
     id="layer1"
     transform="translate(67.857146,-84.50504)">
    <g
       transform="matrix(0,-1,-1,0,373.50506,516.50504)"
       id="g4845"
       style="display:inline">
      <g
         transform="matrix(0,-1,-1,0,567.36222,615.36221)"
         id="g1311"
         inkscape:export-filename="envelope02.png"
         inkscape:export-xdpi="90"
         inkscape:export-ydpi="90">
        <path
           style="font-style:normal;font-variant:normal;font-weight:normal;font-stretch:normal;font-size:15px;line-height:125%;font-family:Ubuntu;-inkscape-font-specification:Ubuntu;text-align:center;letter-spacing:0px;word-spacing:0px;writing-mode:lr-tb;text-anchor:middle;display:inline;fill:#808080;fill-opacity:1;stroke:none;stroke-width:0.86666679"
           d="M 45 2.75 L 34.460938 12 L 55.539062 12 L 45 2.75 z M 18 26.449219 L 6 36.982422 L 6 77.173828 C 6 87.250708 10.33334 87.25 19 87.25 L 71 87.25 C 79.66666 87.25 84 87.250668 84 77.173828 L 84 36.982422 L 72 26.449219 L 72 43.900391 L 45 59.789062 L 18 43.900391 L 18 26.449219 z "
           transform="translate(174,135.36222)"
           id="path4182" />
        <g
           id="g1313"
           transform="matrix(1.875,0,0,1.875,-366,-1657.8169)">
          <rect
             transform="translate(0,804.3622)"
             y="152"
             x="288"
             height="48"
             width="48"
             id="rect1315"
             style="opacity:0.21171169;fill:none;stroke:none" />
        </g>
        <path
           style="font-style:normal;font-variant:normal;font-weight:normal;font-stretch:normal;font-size:15px;line-height:125%;font-family:Ubuntu;-inkscape-font-specification:Ubuntu;text-align:center;letter-spacing:0px;word-spacing:0px;writing-mode:lr-tb;text-anchor:middle;display:inline;fill:#808080;fill-opacity:1;stroke:none;stroke-width:0.86666679"
           d="M 69.03711,145.89542 102,175.8173 l 0,34.63867 c 0,1.7219 -0.16808,2.95346 -0.44141,3.74219 -0.27818,0.80265 -0.5732,1.14187 -1.08789,1.44726 -0.97428,0.57811 -3.25147,0.7168 -6.73242,0.7168 l -49.47656,0 c -3.48094,0 -5.75811,-0.13873 -6.73242,-0.7168 -0.5147,-0.30539 -0.80973,-0.64461 -1.08789,-1.44726 C 36.16807,213.40944 36,212.17787 36,210.45597 l 0,-34.58594 33.03711,-29.97461 z"
           id="path4216"
           inkscape:connector-curvature="0" />
        <path
           style="font-style:normal;font-variant:normal;font-weight:500;font-stretch:normal;font-size:medium;line-height:125%;font-family:Ubuntu;-inkscape-font-specification:'Ubuntu Medium';text-align:center;letter-spacing:0px;word-spacing:0px;writing-mode:lr-tb;text-anchor:middle;display:inline;fill:#808080;fill-opacity:1;stroke:none;stroke-width:0.76862878"
           d="m 223,182.32361 c 0,-1.20651 -0.39035,-2.16469 -1.17104,-2.87436 -0.78069,-0.70975 -1.70332,-1.06462 -2.76792,-1.06462 -1.10006,0 -2.04044,0.35487 -2.82114,1.06462 -0.78069,0.70967 -1.17104,1.66785 -1.17104,2.87436 0,1.24203 0.39035,2.21789 1.17104,2.92763 0.7807,0.70968 1.72108,1.06455 2.82114,1.06455 1.0646,0 1.98723,-0.35487 2.76792,-1.06455 C 222.60965,184.5415 223,183.56564 223,182.32361 Z"
           id="path4122"
           inkscape:connector-curvature="0" />
        <path
           style="font-style:normal;font-variant:normal;font-weight:500;font-stretch:normal;font-size:medium;line-height:125%;font-family:Ubuntu;-inkscape-font-specification:'Ubuntu Medium';text-align:start;letter-spacing:0px;word-spacing:0px;writing-mode:lr-tb;text-anchor:start;display:inline;fill:#808080;fill-opacity:1;stroke:none;stroke-width:0.74492276px;stroke-linecap:butt;stroke-linejoin:miter;stroke-opacity:1"
           d="m 221.98385,160.72878 c -0.0355,2.59215 -0.0937,4.96614 -0.2811,7.12125 -0.18739,2.15507 -0.42164,4.3258 -0.70275,6.51219 l -4.02915,0 c -0.31234,-2.18639 -0.56221,-4.35712 -0.74961,-6.51219 -0.1874,-2.18639 -0.31622,-4.56038 -0.28111,-7.12125 l 0.0599,-4.36656 6.04372,0 z"
           id="path4181"
           inkscape:connector-curvature="0"
           sodipodi:nodetypes="sscccsccs" />
        <path
           inkscape:connector-curvature="0"
           id="path4184"
           d="M 91.96577,179.24044 90,182.51202 l 29,20.8502 29,-20.8502 -1.96577,-3.27158 L 119,195.15098 91.96577,179.24044 Z"
           style="font-style:normal;font-variant:normal;font-weight:normal;font-stretch:normal;font-size:15px;line-height:125%;font-family:Ubuntu;-inkscape-font-specification:Ubuntu;text-align:center;letter-spacing:0px;word-spacing:0px;writing-mode:lr-tb;text-anchor:middle;display:inline;fill:#808080;fill-opacity:1;stroke:none;stroke-width:0.8064748" />
      </g>
    </g>
  </g>
</svg>
