<?xml version="1.0" encoding="UTF-8" standalone="no"?>
<!-- Created with Inkscape (http://www.inkscape.org/) -->

<svg
   xmlns:dc="http://purl.org/dc/elements/1.1/"
   xmlns:cc="http://creativecommons.org/ns#"
   xmlns:rdf="http://www.w3.org/1999/02/22-rdf-syntax-ns#"
   xmlns:svg="http://www.w3.org/2000/svg"
   xmlns="http://www.w3.org/2000/svg"
   xmlns:sodipodi="http://sodipodi.sourceforge.net/DTD/sodipodi-0.dtd"
   xmlns:inkscape="http://www.inkscape.org/namespaces/inkscape"
   width="32px"
   height="32px"
   id="svg5185"
   version="1.1"
   inkscape:version="0.48.5 r10040"
   sodipodi:docname="tags.svg">
  <defs
     id="defs5187" />
  <sodipodi:namedview
     id="base"
     pagecolor="#ffffff"
     bordercolor="#666666"
     borderopacity="1.0"
     inkscape:pageopacity="0.0"
     inkscape:pageshadow="2"
     inkscape:zoom="11.197802"
     inkscape:cx="14.749754"
     inkscape:cy="16"
     inkscape:current-layer="layer1"
     showgrid="true"
     inkscape:grid-bbox="true"
     inkscape:document-units="px"
     inkscape:window-width="861"
     inkscape:window-height="832"
     inkscape:window-x="2018"
     inkscape:window-y="94"
     inkscape:window-maximized="0" />
  <metadata
     id="metadata5190">
    <rdf:RDF>
      <cc:Work
         rdf:about="">
        <dc:format>image/svg+xml</dc:format>
        <dc:type
           rdf:resource="http://purl.org/dc/dcmitype/StillImage" />
        <dc:title />
      </cc:Work>
    </rdf:RDF>
  </metadata>
  <g
     id="layer1"
     inkscape:label="Layer 1"
     inkscape:groupmode="layer">
    <g
       transform="matrix(1.9024358,0,0,1.9333298,-461.90038,334.71093)"
       inkscape:label="starred"
       id="g5313">
      <g
         style="display:inline"
         transform="translate(15.000398,-1169)"
         inkscape:label="non-starred"
         id="g5315">
        <g
           id="g5317"
           inkscape:label="folder-remote">
          <rect
             style="color:#bebebe;fill:none;stroke:none;stroke-width:2;marker:none;visibility:visible;display:inline;overflow:visible;enable-background:accumulate"
             id="rect5319"
             width="16"
             height="16"
             x="227.9998"
             y="996" />
        </g>
      </g>
    </g>
    <path
       sodipodi:nodetypes="ccccccsssss"
       inkscape:connector-curvature="0"
       style="fill:#808080;fill-opacity:1;stroke:none"
       d="m 4.1967727,2.1781876 0,13.5333094 L 17.513823,29.244806 30.830874,15.711497 17.513823,2.1781876 z m 5.7073074,3.8666596 c 1.0506769,0 1.9024359,0.8655904 1.9024359,1.9333298 0,1.0677394 -0.851759,1.9333308 -1.9024359,1.9333308 -1.0506773,0 -1.9024358,-0.8655914 -1.9024358,-1.9333308 0,-1.0677394 0.8517585,-1.9333298 1.9024358,-1.9333298 z"
       id="path4849" />
    <path
       inkscape:connector-curvature="0"
       id="path4858"
       d="m 6.0992085,4.1115174 0,3.8666596 c 0,-2.1126075 1.7260229,-3.8666596 3.8048716,-3.8666596 l -3.8048716,0 z m 3.8048716,0 c 2.0788489,0 3.8048719,1.7540521 3.8048719,3.8666596 0,2.112608 -1.726023,3.866661 -3.8048719,3.866661 -2.0788487,0 -3.8048716,-1.754053 -3.8048716,-3.866661 l 0,6.932806 11.4146145,11.599978 7.167579,-7.283974 -4.889849,-12.0002373 -2.296317,-2.3335871 -1.857842,-0.7816452 -5.7333139,0 z m -7.6097432,7.3783806 -0.5759244,1.41222 0.5759244,1.412239 0,-2.824459 z M 3.825208,18.067743 8.9268559,30.585299 14.028504,28.436732 3.825208,18.067743 z m 22.431639,5.025903 -0.326971,0.332282 0.393861,-0.166073 -0.06697,-0.166073 z"
       style="fill:#808080;fill-opacity:1;stroke:none" />
  </g>
</svg>
